<svg
  xmlns="http://www.w3.org/2000/svg"
  width="48"
  height="48"
  viewBox="0 0 48 48"
>
  <path
    fill="url(#a)"
    d="M18.407 38.38c-1.823-1.667-2.355-5.17-1.596-7.707 1.318 1.6 3.143 2.107 5.034 2.393 2.918.441 5.785.276 8.496-1.058.31-.153.597-.356.935-.562.255.739.321 1.484.232 2.242-.216 1.847-1.135 3.274-2.597 4.355-.585.433-1.203.82-1.807 1.227-1.855 1.254-2.357 2.724-1.66 4.862l.07.232a4.878 4.878 0 0 1-2.167-1.853c-.556-.856-.821-1.803-.835-2.828-.007-.499-.007-1.002-.074-1.494-.164-1.199-.727-1.736-1.787-1.767-1.088-.031-1.95.641-2.177 1.7-.018.082-.043.162-.068.257h.001Z"
  />
  <path
    fill="#17191E"
    d="M8 30.25s5.4-2.63 10.814-2.63l4.083-12.635c.153-.61.599-1.026 1.103-1.026s.95.415 1.103 1.026l4.082 12.635C35.598 27.62 40 30.25 40 30.25L30.81 5.214C30.547 4.476 30.102 4 29.503 4H18.497c-.599 0-1.025.476-1.306 1.214C17.17 5.264 8 30.25 8 30.25Z"
  />
  <defs>
    <linearGradient
      id="a"
      x1="16.476"
      x2="34.084"
      y1="44.364"
      y2="36.045"
      gradientUnits="userSpaceOnUse"
    >
      <stop stop-color="#D83333" />
      <stop offset="1" stop-color="#F041FF" />
    </linearGradient>
  </defs>
</svg>
