<svg xmlns="http://www.w3.org/2000/svg" width="48" height="48" viewBox="0 0 48 48">
  <path
    d="M37.125 22.685c-.146 0-.291.006-.436.01a.202.202 0 0 0-.068.016.247.247 0 0 0-.157.17l-.62 2.166c-.267.932-.168 1.792.281 2.423.412.584 1.098.927 1.93.967l3.363.204a.3.3 0 0 1 .29.273.33.33 0 0 1-.017.149.426.426 0 0 1-.364.284l-3.495.204c-1.899.088-3.941 1.637-4.658 3.526l-.252.667a.188.188 0 0 0 .017.17.187.187 0 0 0 .148.085h12.036a.32.32 0 0 0 .31-.234 8.773 8.773 0 0 0 .32-2.36c0-4.813-3.86-8.714-8.622-8.714m-5.26 11.028.223-.784c.268-.931.169-1.791-.28-2.422-.413-.584-1.098-.927-1.93-.967l-15.777-.204a.314.314 0 0 1-.25-.133.333.333 0 0 1-.034-.289.427.427 0 0 1 .368-.284l15.924-.204c1.89-.087 3.933-1.637 4.65-3.527l.908-2.4a.6.6 0 0 0 .026-.318C34.665 17.506 30.526 14 25.578 14c-4.561 0-8.431 2.975-9.82 7.11a4.613 4.613 0 0 0-3.274-.916c-2.187.22-3.947 2.001-4.164 4.212a4.8 4.8 0 0 0 .12 1.648C4.867 26.161 2 29.119 2 32.755c0 .33.024.652.07.969a.307.307 0 0 0 .305.268h29.136a.38.38 0 0 0 .36-.279"
  />
</svg>
