<svg xmlns="http://www.w3.org/2000/svg" width="48" height="48" viewBox="0 0 48 48">
  <path
    d="M4 20c0-5.6 0-8.4 1.09-10.54a10 10 0 0 1 4.37-4.37C11.6 4 14.4 4 20 4h8c5.6 0 8.4 0 10.54 1.09a10 10 0 0 1 4.37 4.37C44 11.6 44 14.4 44 20v8c0 5.6 0 8.4-1.09 10.54a10.001 10.001 0 0 1-4.37 4.37C36.4 44 33.6 44 28 44h-8c-5.6 0-8.4 0-10.54-1.09a10 10 0 0 1-4.37-4.37C4 36.4 4 33.6 4 28v-8Z"
  />
  <path
    fill="#fff"
    d="M21.617 16.913c.049 0 .072 0 .09.01a.07.07 0 0 1 .03.039c.006.018 0 .042-.011.09l-3.739 15.582c-.011.047-.016.072-.01.09a.07.07 0 0 0 .03.038c.016.01.041.011.09.011h5.735c.048 0 .072 0 .089.01a.071.071 0 0 1 .031.039c.006.018 0 .042-.012.089l-.335 1.403a.165.165 0 0 1-.02.057.074.074 0 0 1-.03.023.164.164 0 0 1-.06.006h-9.643C12.277 34.4 11 33.068 11 31.426v-11.54c0-1.642 1.277-2.973 2.852-2.973h7.765ZM34.123 13.6c1.589 0 2.877 1.331 2.877 2.973v11.54c0 1.643-1.288 2.974-2.877 2.974H20.22c-.048 0-.072 0-.09-.01a.071.071 0 0 1-.03-.04c-.006-.018 0-.041.011-.088l4.177-17.263c.008-.03.011-.046.02-.057a.07.07 0 0 1 .028-.023.164.164 0 0 1 .06-.006h9.727Z"
  />
</svg>
