<svg width="24" height="24" viewBox="0 0 24 24" fill="none" xmlns="http://www.w3.org/2000/svg">
<path d="M7.53851 5.89017C9.37288 7.26732 11.3458 10.0597 12.0703 11.558C12.7948 10.0597 14.7677 7.26732 16.6021 5.89017C17.9257 4.89649 20.0703 4.12763 20.0703 6.57419C20.0703 7.06278 19.7902 10.6788 19.6259 11.2659C19.0547 13.3068 16.9736 13.8274 15.1223 13.5123C18.3583 14.063 19.1814 15.8872 17.4036 17.7115C14.0273 21.176 12.5509 16.8422 12.1726 15.7317C12.1032 15.5281 12.0708 15.4329 12.0703 15.5139C12.0698 15.4329 12.0374 15.5281 11.968 15.7317C11.5897 16.8422 10.1133 21.176 6.73698 17.7115C4.9592 15.8872 5.78236 14.063 9.01828 13.5123C7.16702 13.8274 5.0859 13.3068 4.51476 11.2659C4.35046 10.6788 4.07031 7.06278 4.07031 6.57419C4.07031 4.12763 6.21495 4.89649 7.53851 5.89017Z" fill="black"/>
</svg>
