<svg width="24" height="24" viewBox="0 0 24 24" fill="none" xmlns="http://www.w3.org/2000/svg">
<path fill-rule="evenodd" clip-rule="evenodd" d="M14.143 20.5603L5.86382 18.3429C5.26006 18.181 4.74534 17.7859 4.43286 17.2445C4.12037 16.7031 4.03573 16.0598 4.19753 15.456L6.97039 5.106C7.13229 4.50225 7.52738 3.98752 8.06876 3.67504C8.61014 3.36256 9.25346 3.27791 9.85725 3.43972L18.1372 5.65715C18.741 5.81905 19.2557 6.21414 19.5682 6.75552C19.8807 7.29689 19.9653 7.94022 19.8035 8.54401L17.0298 18.8931C16.8679 19.4969 16.4728 20.0116 15.9314 20.3241C15.3901 20.6366 14.7467 20.7221 14.143 20.5603ZM9.80954 6.8048C9.89331 6.79379 9.97843 6.7994 10.06 6.82129L10.0592 6.823L16.2683 8.48586C16.3528 8.50488 16.4325 8.54077 16.5028 8.59136C16.573 8.64194 16.6323 8.7062 16.6771 8.78026C16.7219 8.85433 16.7513 8.93668 16.7635 9.02238C16.7757 9.10808 16.7705 9.19536 16.7481 9.27899C16.7258 9.36262 16.6868 9.44087 16.6334 9.50906C16.5801 9.57724 16.5135 9.63396 16.4378 9.67579C16.362 9.71763 16.2785 9.74373 16.1924 9.75253C16.1063 9.76133 16.0193 9.75265 15.9366 9.727L9.72661 8.06415C9.645 8.04225 9.56851 8.0045 9.50149 7.95305C9.43447 7.90159 9.37825 7.83744 9.33602 7.76425C9.2938 7.69106 9.26641 7.61028 9.2554 7.52651C9.2444 7.44273 9.25 7.35761 9.2719 7.276C9.29379 7.1944 9.33154 7.1179 9.383 7.05088C9.43446 6.98387 9.49861 6.92764 9.57179 6.88542C9.64498 6.84319 9.72577 6.8158 9.80954 6.8048ZM8.86158 9.58611C9.00518 9.50047 9.1765 9.47414 9.33918 9.51272L15.5483 11.1756C15.7131 11.2197 15.8537 11.3274 15.939 11.4752C16.0244 11.6229 16.0476 11.7985 16.0035 11.9633C15.9594 12.1281 15.8516 12.2686 15.7039 12.354C15.5562 12.4394 15.3806 12.4625 15.2158 12.4184L9.00575 10.7539C8.84564 10.7057 8.71058 10.5971 8.62923 10.451C8.54788 10.3049 8.52664 10.1329 8.57002 9.97144C8.6134 9.80997 8.71798 9.67175 8.86158 9.58611ZM8.13004 12.2676C7.9825 12.3528 7.87481 12.493 7.83061 12.6576C7.8087 12.7391 7.80307 12.8242 7.81404 12.9079C7.82502 12.9917 7.85238 13.0724 7.89457 13.1455C7.93675 13.2187 7.99294 13.2828 8.05991 13.3343C8.12689 13.3857 8.20334 13.4234 8.2849 13.4453L12.4249 14.5544C12.5064 14.5763 12.5915 14.5818 12.6752 14.5708C12.7589 14.5598 12.8396 14.5324 12.9127 14.4901C12.9858 14.4479 13.0499 14.3917 13.1013 14.3247C13.1527 14.2577 13.1903 14.1813 13.2122 14.0997C13.234 14.0182 13.2396 13.9331 13.2285 13.8494C13.2175 13.7657 13.1901 13.685 13.1479 13.6119C13.1057 13.5388 13.0494 13.4747 12.9825 13.4233C12.9155 13.372 12.839 13.3343 12.7575 13.3124L8.61747 12.2033C8.45289 12.1593 8.27757 12.1824 8.13004 12.2676Z" fill="black"/>
</svg>
