<svg width="24" height="24" viewBox="0 0 24 24" fill="none" xmlns="http://www.w3.org/2000/svg">
<path fill-rule="evenodd" clip-rule="evenodd" d="M7.28688 9.18108C6.36636 8.58126 5.75781 7.54278 5.75781 6.36213C5.75781 4.50528 7.26309 3 9.11994 3H14.8804C16.7372 3 18.2425 4.50528 18.2425 6.36213C18.2425 7.54278 17.634 8.58126 16.7134 9.18108C17.634 9.7809 18.2425 10.8194 18.2425 12C18.2425 13.8569 16.7372 15.3622 14.8804 15.3622H14.8191C13.9413 15.3622 13.1421 15.0258 12.5434 14.4749V17.6072C12.5434 19.4848 11.0051 21 9.13518 21C7.28214 21 5.75781 19.4985 5.75781 17.6379C5.75781 16.4573 6.36633 15.4188 7.28682 14.819C6.36633 14.2191 5.75781 13.1807 5.75781 12C5.75781 10.8194 6.36636 9.7809 7.28688 9.18108ZM12.5434 12C12.5434 13.2569 13.5623 14.2757 14.8191 14.2757H14.8804C16.1372 14.2757 17.1561 13.2569 17.1561 12C17.1561 10.7432 16.1372 9.72432 14.8804 9.72432H14.8191C13.5623 9.72432 12.5434 10.7432 12.5434 12ZM11.4569 9.72432H9.11994C7.86309 9.72432 6.84423 10.7432 6.84423 12C6.84423 13.2543 7.85898 14.2716 9.11229 14.2757H9.11586H11.4569V9.72432ZM9.11994 15.3622C9.11739 15.3622 9.11484 15.3622 9.11229 15.3622C7.85898 15.3663 6.84423 16.3836 6.84423 17.6379C6.84423 18.8909 7.87452 19.9136 9.13518 19.9136C10.4128 19.9136 11.4569 18.8772 11.4569 17.6072V15.3622H9.11994ZM11.4569 8.63784H9.11994C7.86309 8.63784 6.84423 7.61898 6.84423 6.36213C6.84423 5.10528 7.86309 4.08642 9.11994 4.08642H11.4569V8.63784ZM14.8804 8.63784H12.5434V4.08642H14.8804C16.1372 4.08642 17.1561 5.10528 17.1561 6.36213C17.1561 7.61898 16.1372 8.63784 14.8804 8.63784Z" fill="black"/>
</svg>
