<svg width="24" height="24" viewBox="0 0 24 24" fill="none" xmlns="http://www.w3.org/2000/svg">
<path d="M6.75 6.80575C6.75 5.3751 7.90977 4.21533 9.34042 4.21533H14.6596C16.0902 4.21533 17.25 5.3751 17.25 6.80575V6.80575C17.25 8.2364 16.0902 9.39616 14.6596 9.39616H9.34042C7.90977 9.39616 6.75 8.2364 6.75 6.80575V6.80575Z" stroke="black" stroke-width="1.38156"/>
<path d="M6.75 11.9864C6.75 10.5558 7.90977 9.396 9.34042 9.396H12.0001V14.5768H9.34042C7.90977 14.5768 6.75 13.4171 6.75 11.9864V11.9864Z" stroke="black" stroke-width="1.38156"/>
<path d="M12 11.9864C12 10.5558 13.1598 9.396 14.5904 9.396H14.6595C16.0901 9.396 17.2499 10.5558 17.2499 11.9864V11.9864C17.2499 13.4171 16.0901 14.5768 14.6595 14.5768H14.5904C13.1598 14.5768 12 13.4171 12 11.9864V11.9864Z" stroke="black" stroke-width="1.38156"/>
<path d="M6.75 17.1905C6.75 15.7599 7.90977 14.6001 9.34042 14.6001H11.9999V17.156C11.9999 18.6057 10.8073 19.7809 9.35757 19.7809V19.7809C7.92692 19.7809 6.75 18.6212 6.75 17.1905V17.1905Z" stroke="black" stroke-width="1.38156"/>
<path d="M12 4.16943V17.0639" stroke="black" stroke-width="1.38156"/>
</svg>
