<svg width="24" height="24" viewBox="0 0 24 24" fill="none" xmlns="http://www.w3.org/2000/svg">
<path fill-rule="evenodd" clip-rule="evenodd" d="M12.0064 4.16309C7.59582 4.16309 4.03027 7.75492 4.03027 12.1985C4.03027 15.7505 6.31484 18.7572 9.48415 19.8214C9.8804 19.9014 10.0255 19.6485 10.0255 19.4357C10.0255 19.2495 10.0125 18.6109 10.0125 17.9456C7.7937 18.4246 7.33166 16.9877 7.33166 16.9877C6.97509 16.0565 6.44676 15.8171 6.44676 15.8171C5.72056 15.3249 6.49966 15.3249 6.49966 15.3249C7.30521 15.3781 7.72791 16.1497 7.72791 16.1497C8.44089 17.3735 9.58978 17.0277 10.052 16.8148C10.1179 16.296 10.3294 15.9368 10.5539 15.7373C8.78423 15.551 6.92236 14.8592 6.92236 11.7727C6.92236 10.8947 7.23909 10.1763 7.74097 9.61762C7.66178 9.41811 7.3844 8.59313 7.82031 7.48896C7.82031 7.48896 8.49378 7.27607 10.0123 8.31378C10.6625 8.13789 11.3329 8.04841 12.0064 8.04766C12.6799 8.04766 13.3664 8.14088 14.0004 8.31378C15.5191 7.27607 16.1926 7.48896 16.1926 7.48896C16.6285 8.59313 16.3509 9.41811 16.2717 9.61762C16.7868 10.1763 17.0905 10.8947 17.0905 11.7727C17.0905 14.8592 15.2286 15.5376 13.4458 15.7373C13.7364 15.99 13.9872 16.4689 13.9872 17.2272C13.9872 18.3048 13.9741 19.1696 13.9741 19.4356C13.9741 19.6485 14.1194 19.9014 14.5155 19.8215C17.6848 18.757 19.9694 15.7505 19.9694 12.1985C19.9824 7.75492 16.4038 4.16309 12.0064 4.16309Z" fill="black"/>
</svg>
