<svg width="24" height="24" viewBox="0 0 24 24" fill="none" xmlns="http://www.w3.org/2000/svg">
<path fill-rule="evenodd" clip-rule="evenodd" d="M4.04009 6.66603L4.00005 12.6651C3.99272 13.8106 4.8067 14.7337 5.83942 14.9264L5.87848 9.05253C5.88825 7.50222 6.97517 6.15651 8.49911 5.85401L14.1808 4.72827C13.8082 3.72314 12.7604 3.0725 11.6485 3.29296L5.85504 4.4414C4.8067 4.64892 4.04692 5.57984 4.04009 6.66603ZM6.87847 9.0586L6.83843 15.0586C6.83111 16.2044 7.64459 17.1273 8.67732 17.3201L8.71687 11.4456C8.72712 9.89552 9.81258 8.54956 11.3375 8.24707L17.0187 7.12084C16.6461 6.11619 15.5983 5.46653 14.4869 5.68699L8.69343 6.83495C7.64508 7.04296 6.88482 7.97338 6.87847 9.0586ZM9.71685 11.4521L9.67685 17.4521H9.67635C9.66735 18.8936 10.9594 19.9831 12.3514 19.7071L18.1449 18.5586C19.1934 18.3511 19.9529 17.4206 19.9599 16.3346L19.9999 10.3345C20.0094 8.89304 18.7174 7.80353 17.3254 8.07953L11.5319 9.22804C10.4834 9.43604 9.72385 10.366 9.71685 11.4521Z" fill="black"/>
</svg>
