<svg width="16" height="16" viewBox="0 0 16 16" fill="none" xmlns="http://www.w3.org/2000/svg">
<g clip-path="url(#clip0_847_275)">
<path fill-rule="evenodd" clip-rule="evenodd" d="M8.45913 1.77368C9.22925 1.02987 10.2607 0.618292 11.3314 0.627596C12.402 0.636899 13.4261 1.06634 14.1832 1.82342C14.9403 2.58051 15.3697 3.60466 15.379 4.67529C15.3884 5.74593 14.9768 6.77739 14.233 7.54751L14.2239 7.55689L12.2239 9.55671C12.2239 9.55675 12.224 9.55668 12.2239 9.55671C11.81 9.97077 11.3117 10.2911 10.7632 10.4957C10.2146 10.7003 9.62839 10.7846 9.04435 10.7428C8.46032 10.701 7.89211 10.534 7.37827 10.2533C6.86443 9.97255 6.41698 9.58459 6.06626 9.11572L7.2674 8.21725C7.48929 8.51388 7.77237 8.75932 8.09745 8.93693C8.42254 9.11454 8.78202 9.22016 9.15151 9.24662C9.521 9.27308 9.89186 9.21977 10.2389 9.0903C10.586 8.96083 10.9012 8.75823 11.1631 8.49625L13.1583 6.50105C13.6262 6.0143 13.885 5.36363 13.8791 4.68833C13.8732 4.01099 13.6015 3.36305 13.1226 2.88408C12.6436 2.40511 11.9957 2.13343 11.3183 2.12754C10.6427 2.12167 9.99168 2.38074 9.50485 2.84909L7.8304 4.5138L6.77284 3.45005L8.45913 1.77368ZM5.23711 5.50394C5.78571 5.29929 6.37191 5.21502 6.95594 5.25685C7.53998 5.29868 8.10818 5.46562 8.62202 5.74636C9.13587 6.02709 9.58332 6.41505 9.93404 6.88392L8.73289 7.78239C8.51101 7.48576 8.22792 7.24031 7.90284 7.06271C7.57776 6.8851 7.21828 6.77948 6.84879 6.75302C6.4793 6.72656 6.10844 6.77987 5.76136 6.90934C5.41429 7.03881 5.09912 7.24141 4.83723 7.50339L2.84203 9.49859C2.37413 9.98534 2.11532 10.636 2.12119 11.3113C2.12708 11.9887 2.39876 12.6366 2.87773 13.1156C3.35671 13.5945 4.00464 13.8662 4.68198 13.8721C5.35729 13.878 6.00796 13.6192 6.4947 13.1513L8.16013 11.4858L9.22079 12.5465L7.54125 14.226C6.77112 14.9699 5.73958 15.3813 4.66895 15.372C3.59831 15.3627 2.57416 14.9333 1.81707 14.1762C1.05999 13.4191 0.630552 12.395 0.621248 11.3243C0.611945 10.2537 1.02352 9.22225 1.76733 8.45212L1.77639 8.44275L3.77637 6.44292C3.77641 6.44289 3.77634 6.44296 3.77637 6.44292C4.19031 6.02886 4.68855 5.70856 5.23711 5.50394Z" fill="black"/>
</g>
<defs>
<clipPath id="clip0_847_275">
<rect width="16" height="16" fill="white"/>
</clipPath>
</defs>
</svg>
