<svg width="24" height="24" viewBox="0 0 24 24" fill="none" xmlns="http://www.w3.org/2000/svg">
<path fill-rule="evenodd" clip-rule="evenodd" d="M10.0114 19.4535L5.86284 18.3418C5.25909 18.1799 4.74436 17.7848 4.43188 17.2434C4.1194 16.7021 4.03475 16.0588 4.19656 15.455L6.97027 5.10598C7.13217 4.50223 7.52726 3.98752 8.06864 3.67504C8.61002 3.36256 9.25334 3.27792 9.85713 3.43972L18.1371 5.65712C18.7409 5.81902 19.2556 6.2141 19.5681 6.75547C19.8806 7.29684 19.9652 7.94016 19.8034 8.54393L18.1371 14.7607C17.9842 15.3315 17.7203 15.8666 17.3606 16.3355C17.0009 16.8043 16.5523 17.1977 16.0406 17.4932L13.4263 19.0026C12.9145 19.2982 12.3495 19.4901 11.7636 19.5673C11.1777 19.6445 10.5823 19.6064 10.0114 19.4535ZM16.4451 15.4096L13.5154 14.6244C13.3795 14.588 13.2377 14.5787 13.0982 14.5971C12.9587 14.6154 12.8242 14.6611 12.7023 14.7315C12.5805 14.8018 12.4737 14.8955 12.388 15.0071C12.3024 15.1188 12.2395 15.2462 12.2031 15.3821L11.418 18.3118C11.8987 18.2753 12.3651 18.1312 12.7826 17.8901L15.3977 16.3807C15.8153 16.1396 16.1732 15.8077 16.4451 15.4096Z" fill="black"/>
</svg>
