<svg width="24" height="24" viewBox="0 0 24 24" fill="none" xmlns="http://www.w3.org/2000/svg">
<path d="M18.3193 8.72854C18.329 8.86854 18.329 9.00854 18.329 9.14983C18.329 13.455 15.0515 18.4202 9.05865 18.4202V18.4176C7.28832 18.4202 5.55478 17.9131 4.06445 16.9569C4.32187 16.9879 4.58058 17.0034 4.83994 17.004C6.30703 17.0053 7.73219 16.5131 8.88639 15.6066C7.49219 15.5802 6.26961 14.6711 5.84252 13.344C6.3309 13.4382 6.83413 13.4189 7.31349 13.2879C5.79349 12.9808 4.69994 11.6453 4.69994 10.0943V10.0531C5.15284 10.3053 5.65994 10.4453 6.17865 10.4608C4.74703 9.50402 4.30574 7.59951 5.17026 6.11048C6.82445 8.14596 9.2651 9.38338 11.8851 9.51435C11.6225 8.38273 11.9812 7.19693 12.8277 6.40144C14.1399 5.1679 16.2038 5.23112 17.4374 6.54273C18.167 6.39886 18.8664 6.13112 19.5064 5.75177C19.2632 6.50596 18.7541 7.14661 18.0741 7.5537C18.7199 7.47757 19.3509 7.30467 19.9451 7.0408C19.5077 7.69628 18.9567 8.26725 18.3193 8.72854Z" fill="black"/>
</svg>
