<svg width="500" height="500" viewBox="0 0 500 500" fill="none" xmlns="http://www.w3.org/2000/svg">
<rect width="500" height="500" rx="80" fill="#CCFF33"/>
<path d="M372.457 138.26C374.244 138.26 377.562 140.287 382.412 144.34C387.517 148.14 392.494 153.84 397.344 161.439C402.449 168.786 405.001 176.387 405.001 184.24V319.52C405.001 321.293 393.642 326.613 370.926 335.479C348.464 344.093 332.894 349.54 324.216 351.82V365.88C324.216 381.333 329.449 390.073 339.914 392.1V400.46L301.244 422.12C295.629 419.84 290.396 416.04 285.547 410.72C280.697 405.653 278.273 400.84 278.272 396.28V196.399C278.272 190.573 276.613 184.873 273.295 179.3C270.232 173.727 265.766 170.56 259.896 169.8V161.439C261.684 161.185 275.595 153.458 301.627 138.26C307.498 140.793 312.73 144.594 317.324 149.66C322.174 154.473 324.6 159.033 324.6 163.34C351.91 146.62 367.862 138.26 372.457 138.26ZM136.732 137.5C138.519 138.007 140.689 138.767 143.241 139.78C145.794 140.54 149.112 142.947 153.195 147C157.534 151.053 159.704 155.74 159.704 161.06C161.236 160.299 165.575 157.893 172.722 153.84C191.609 143.2 202.839 137.88 206.413 137.88C214.581 137.88 222.239 143.2 229.386 153.84C236.532 164.48 240.105 174.233 240.105 183.1V298.24C240.106 312.173 246.359 320.407 258.866 322.94V331.3L217.134 354.48C211.518 352.2 206.286 348.527 201.437 343.46C196.587 338.14 194.162 333.2 194.162 328.64V218.44C194.162 204.254 192.503 193.486 189.185 186.14C186.122 178.54 180.506 174.74 172.339 174.74L159.704 177.02V298.24C159.704 313.693 164.937 322.433 175.401 324.46V332.82L136.732 354.48C131.117 352.2 125.885 348.527 121.035 343.46C116.186 338.14 113.761 333.2 113.761 328.64V199.82C113.761 191.46 111.974 184.24 108.4 178.16C104.827 172.08 100.36 169.04 95 169.04V160.68C96.7869 160.426 110.698 152.7 136.732 137.5ZM339.531 173.22C334.682 173.22 329.704 175.247 324.6 179.3V330.16C331.236 330.16 338.638 328.007 346.806 323.7C354.973 319.394 359.057 314.833 359.057 310.02V201.34C359.057 182.593 352.548 173.22 339.531 173.22Z" fill="#0D4934"/>
</svg>
