<svg xmlns="http://www.w3.org/2000/svg" width="128" height="128" fill="none" viewBox="0 0 128 128">
 	<style>
		path {
			fill: #000000;
		}

		@media (prefers-color-scheme: dark) {
			path {
				fill: #ffffff;
			}
		}
	</style>
  <path d="M32 112h-8V80h8v32Zm88-32c4.4 0 8 3.6 8 8v24h-8V96H80v16h-8V88c0-4.4 3.6-8 8-8v8h40v-8ZM16 72c4.4 0 8 3.6 8 8H0v-8h16Zm40 8H32c0-4.4 3.6-8 8-8h16v8Zm64 0H80v-8h40v8ZM8 56H0V32c0-4.4 3.6-8 8-8v32Zm40-32c4.4 0 8 3.6 8 8v24h-8V24Zm32 8h40v8H80v16h-8V16h8v16Zm40 8c4.4 0 8 3.6 8 8v8h-8V40Zm8-16c0 4.4-3.6 8-8 8V16h8v8Zm-80 0H8v-8h40v8Z"/>
</svg>
