<svg
	xmlns="http://www.w3.org/2000/svg"
	width="20"
	height="20"
	viewBox="0 0 20 20"
	class="fill-current"
>
	<path
		d="m18.99 12.178-2.542-1.998c-.155-.122-.155-.322 0-.444l2.542-1.997c.156-.122.221-.329.145-.458-.076-.13-.29-.176-.473-.103L15.64 8.382c-.184.074-.357-.027-.385-.223l-.454-3.227c-.028-.196-.176-.356-.329-.356-.152 0-.299.16-.326.356L13.69 8.16c-.028.196-.2.297-.385.223l-2.972-1.184a1.042 1.042 0 0 0-.668 0L6.693 8.382c-.184.074-.357-.027-.385-.223l-.454-3.227c-.028-.196-.175-.356-.327-.356-.153 0-.3.16-.328.356L4.744 8.16c-.027.196-.2.297-.384.223L1.338 7.18c-.184-.074-.397-.028-.473.102-.076.13-.011.336.145.458l2.54 1.996c.156.122.156.322 0 .445l-2.54 1.997c-.157.122-.221.34-.145.485.076.146.29.204.473.13l2.995-1.203c.184-.073.355.027.38.223l.433 3.255c.026.196.197.356.38.356s.354-.16.38-.356l.433-3.255c.026-.196.198-.296.38-.223l2.947 1.183c.183.074.484.074.667 0l2.946-1.183c.183-.073.355.027.38.223l.434 3.255c.025.196.197.356.38.356.182 0 .354-.16.38-.356l.433-3.255c.026-.196.197-.296.38-.223l2.996 1.203c.183.074.396.015.472-.13.077-.144.012-.363-.144-.485Zm-6.466-1.972-2.239 1.723a.494.494 0 0 1-.57 0l-2.239-1.723c-.156-.121-.157-.32-.002-.442l2.243-1.767a.48.48 0 0 1 .566 0l2.243 1.767c.155.122.154.32-.003.442Z"
	/>
</svg>
