<svg
	xmlns="http://www.w3.org/2000/svg"
	width="20"
	height="20"
	viewBox="0 0 20 20"
	class="fill-current"
>
	<path
		d="M5.397 3.74C7.26 5.141 9.264 7.986 10 9.513v4.033c0-.086-.033.01-.104.22-.384 1.131-1.884 5.547-5.313 2.017-1.805-1.859-.97-3.717 2.317-4.279-1.88.321-3.994-.209-4.574-2.288-.167-.599-.451-4.283-.451-4.781 0-2.493 2.178-1.71 3.522-.697Zm9.206 0C12.74 5.141 10.736 7.986 10 9.513v4.033c0-.086.033.01.104.22.384 1.131 1.884 5.547 5.313 2.017 1.805-1.859.97-3.717-2.317-4.279 1.88.321 3.994-.209 4.574-2.288.167-.599.451-4.283.451-4.781 0-2.493-2.178-1.71-3.522-.697Z"
	/>
</svg>
