<svg
	xmlns="http://www.w3.org/2000/svg"
	width="20"
	height="20"
	viewBox="0 0 20 20"
	class="fill-current"
>
	<path
		d="M10 1.626a8.331 8.331 0 0 1 8.333 8.333 8.343 8.343 0 0 1-5.676 7.906c-.417.083-.574-.177-.574-.396 0-.28.01-1.177.01-2.292 0-.78-.26-1.28-.561-1.541 1.854-.208 3.801-.917 3.801-4.114 0-.917-.323-1.657-.854-2.24.084-.209.375-1.063-.083-2.209 0 0-.698-.229-2.292.855a7.733 7.733 0 0 0-2.083-.281c-.708 0-1.417.093-2.083.28-1.595-1.072-2.292-.854-2.292-.854-.458 1.146-.167 2-.083 2.209a3.242 3.242 0 0 0-.855 2.24c0 3.187 1.938 3.905 3.792 4.114-.24.208-.458.573-.53 1.115-.48.218-1.678.572-2.428-.688-.156-.25-.625-.865-1.282-.854-.697.01-.28.396.01.552.355.198.76.937.855 1.177.167.469.708 1.364 2.802.98 0 .697.01 1.354.01 1.551 0 .22-.155.47-.572.396a8.327 8.327 0 0 1-5.698-7.906A8.331 8.331 0 0 1 10 1.626Z"
	/>
</svg>
