<svg
	xmlns="http://www.w3.org/2000/svg"
	width="20"
	height="20"
	viewBox="0 0 20 20"
	class="fill-current"
>
	<path
		d="M19.375 4.276c-.69.3-1.43.504-2.21.596a3.81 3.81 0 0 0 1.693-2.095 7.757 7.757 0 0 1-2.443.918A3.875 3.875 0 0 0 13.607 2.5c-2.124 0-3.846 1.696-3.846 3.787 0 .296.034.585.099.862a10.98 10.98 0 0 1-7.93-3.957 3.743 3.743 0 0 0-.52 1.904 3.77 3.77 0 0 0 1.712 3.152 3.874 3.874 0 0 1-1.743-.474v.05c0 1.834 1.325 3.364 3.086 3.713a3.953 3.953 0 0 1-1.737.064A3.842 3.842 0 0 0 6.32 14.23a7.797 7.797 0 0 1-4.778 1.622c-.31 0-.616-.019-.918-.053A11.007 11.007 0 0 0 6.521 17.5c7.077 0 10.946-5.77 10.946-10.773 0-.163-.005-.327-.012-.49a7.748 7.748 0 0 0 1.918-1.959l.002-.002Z"
	/>
</svg>
