<svg
  xmlns="http://www.w3.org/2000/svg"
  width="48"
  height="48"
  viewBox="0 0 48 48"
>
  <path
    d="M16.811 30.673c1.318 1.6 3.143 2.106 5.034 2.392 2.918.442 5.784.277 8.496-1.057.31-.153.596-.356.935-.562.255.738.322 1.484.233 2.242-.216 1.847-1.136 3.273-2.598 4.355-.585.432-1.203.82-1.807 1.227-1.854 1.254-2.357 2.725-1.66 4.863.017.052.032.104.07.231a4.88 4.88 0 0 1-2.166-1.852c-.557-.856-.822-1.804-.836-2.83-.007-.498-.008-1.001-.075-1.492-.164-1.2-.726-1.736-1.786-1.767-1.088-.032-1.95.64-2.178 1.7-.017.081-.042.162-.067.256h.001c-1.823-1.666-2.355-5.169-1.596-7.706ZM29.503 4c.599 0 1.044.476 1.307 1.215L40 30.25c-.022-.013-4.417-2.63-10.815-2.63l-4.083-12.635c-.152-.61-.598-1.026-1.102-1.026-.504 0-.95.415-1.103 1.026L18.814 27.62c-5.398 0-10.781 2.614-10.814 2.63.039-.106 9.142-24.91 9.19-25.035.281-.739.708-1.215 1.307-1.215h11.006Z"
  />
</svg>
