<svg xmlns="http://www.w3.org/2000/svg" width="48" height="48" fill="none" viewBox="0 0 48 48">
  <path fill="#fff" d="M0 0h48v48H0z"/>
  <path fill="url(#codex-gradient)" d="M18.52 7.842a8.545 8.545 0 0 1 4.265-.582c1.867.214 3.53 1.008 4.99 2.38a.17.17 0 0 0 .069.039.168.168 0 0 0 .08 0 8.493 8.493 0 0 1 5.686.513l.087.041.217.107a8.55 8.55 0 0 1 4.084 4.478c.39.952.585 1.943.588 2.977a7.917 7.917 0 0 1-.25 2.283.23.23 0 0 0 .056.214 8.391 8.391 0 0 1 2.208 4.051c.54 2.66-.013 5.058-1.655 7.194l-.254.31a8.49 8.49 0 0 1-4.109 2.59.228.228 0 0 0-.15.143c-.357 1.028-.716 1.91-1.382 2.788-1.68 2.216-4.148 3.446-6.927 3.431-2.216-.011-4.18-.821-5.893-2.43a.2.2 0 0 0-.196-.045c-.724.233-1.456.267-2.248.258a8.289 8.289 0 0 1-3.63-.87 8.482 8.482 0 0 1-3.006-2.492c-.283-.377-.565-.732-.772-1.152a10.84 10.84 0 0 1-.69-1.794 8.553 8.553 0 0 1-.027-4.29.232.232 0 0 0 .011-.104.159.159 0 0 0-.05-.09 8.337 8.337 0 0 1-1.93-3.081 7.272 7.272 0 0 1-.469-2.225 9.686 9.686 0 0 1 .263-2.987c.63-2.075 1.833-3.705 3.609-4.887a6.836 6.836 0 0 1 1.121-.616 11.7 11.7 0 0 1 1.206-.423.183.183 0 0 0 .121-.123 8.42 8.42 0 0 1 1.548-3.015 8.465 8.465 0 0 1 3.429-2.591Zm6.5 19.72a1.189 1.189 0 0 0 0 2.375h6.787a1.191 1.191 0 0 0 1.255-1.187 1.19 1.19 0 0 0-1.255-1.187H25.02Zm-7.624-8.733a1.19 1.19 0 0 0-2.064 1.178l2.374 4.151-2.363 3.987a1.187 1.187 0 0 0 1.316 1.757 1.188 1.188 0 0 0 .728-.545l2.714-4.583a1.187 1.187 0 0 0 .01-1.195l-2.715-4.75Z"/>
  <defs>
    <linearGradient id="codex-gradient" x1="24" x2="24" y1="7.2" y2="40.799" gradientUnits="userSpaceOnUse">
      <stop stop-color="#B1A7FF"/>
      <stop offset=".5" stop-color="#7A9DFF"/>
      <stop offset="1" stop-color="#3941FF"/>
    </linearGradient>
  </defs>
</svg>
