<svg xmlns="http://www.w3.org/2000/svg" width="48" height="48" viewBox="0 0 48 48">
  <path d="M4 20c0-5.6 0-8.4 1.09-10.54a10 10 0 0 1 4.37-4.37C11.6 4 14.4 4 20 4h8c5.6 0 8.4 0 10.54 1.09a10 10 0 0 1 4.37 4.37C44 11.6 44 14.4 44 20v8c0 5.6 0 8.4-1.09 10.54a10.001 10.001 0 0 1-4.37 4.37C36.4 44 33.6 44 28 44h-8c-5.6 0-8.4 0-10.54-1.09a10 10 0 0 1-4.37-4.37C4 36.4 4 33.6 4 28v-8Z"/>
  <path fill="#fff" d="M24 32.887a4.447 4.447 0 1 1-4.447-4.447H24v4.447ZM32.893 24A4.447 4.447 0 1 1 24 24a4.447 4.447 0 0 1 8.893 0Z"/>
  <path fill="#fff" d="M15.107 24.007a4.447 4.447 0 0 1 4.446-4.447H24v8.893h-4.447a4.447 4.447 0 0 1-4.446-4.446ZM24 10.667h4.447a4.447 4.447 0 0 1 0 8.893H24v-8.893Zm0 0h-4.447a4.447 4.447 0 0 0 0 8.893H24v-8.893Z"/>
</svg>
