<svg xmlns="http://www.w3.org/2000/svg" width="48" height="48" fill="none" viewBox="0 0 48 48">
  <path fill="#000" d="M0 0h48v48H0z"/>
  <path fill="#24CB71" d="M24 34.664a5.336 5.336 0 1 1-5.336-5.336H24v5.336Z"/>
  <path fill="#00B6FF" d="M34.672 24A5.336 5.336 0 1 1 24 24a5.336 5.336 0 0 1 10.672 0Z"/>
  <path fill="#874FFF" d="M13.328 24.008a5.336 5.336 0 0 1 5.336-5.336H24v10.672h-5.336a5.336 5.336 0 0 1-5.336-5.336Z"/>
  <path fill="#FF7237" d="M24 8h5.336a5.336 5.336 0 1 1 0 10.672H24V8Z"/>
  <path fill="#FF3737" d="M24 8h-5.336a5.336 5.336 0 1 0 0 10.672H24V8Z"/>
</svg>
