<svg xmlns="http://www.w3.org/2000/svg" width="96" height="96" fill="none" viewBox="0 0 96 96">
  <path fill="#000" d="M74.533 36.02c2.344 0 4.441.292 6.293.878 1.875.586 3.457 1.43 4.746 2.532a10.49 10.49 0 0 1 2.988 3.937c.68 1.524 1.02 3.235 1.02 5.133v25.383h-8.016v-5.239h-.14c-.54 1.032-1.278 1.993-2.215 2.883-.914.891-2.086 1.606-3.516 2.145-1.406.539-3.14.809-5.203.809-2.484 0-4.688-.41-6.61-1.231-1.921-.844-3.445-2.098-4.57-3.762-1.125-1.664-1.687-3.726-1.687-6.187 0-2.11.398-3.844 1.195-5.203a8.835 8.835 0 0 1 3.234-3.27c1.383-.797 2.953-1.406 4.711-1.828a46.163 46.163 0 0 1 5.485-.95c2.32-.28 4.148-.515 5.484-.702 1.36-.188 2.32-.47 2.883-.844.586-.398.879-1.031.879-1.898v-.282c0-1.148-.281-2.156-.844-3.023s-1.383-1.547-2.46-2.04c-1.056-.515-2.333-.773-3.833-.773s-2.824.246-3.973.739c-1.148.492-2.062 1.171-2.742 2.039a5.395 5.395 0 0 0-1.125 2.918h-7.91c.14-2.414.867-4.524 2.18-6.328 1.336-1.829 3.164-3.258 5.484-4.29 2.344-1.03 5.098-1.547 8.262-1.547ZM54.564 73.882h-9.387L40.793 60.84H20.054l-4.513 13.043H6.4L25.244 21.5H35.79l18.773 52.383Zm27-18c-.281.187-.703.363-1.265.527-.54.164-1.208.328-2.004.492a45.78 45.78 0 0 1-2.532.457c-.89.141-1.816.282-2.777.422-1.29.188-2.496.492-3.621.914-1.125.422-2.027 1.008-2.707 1.758-.68.727-1.02 1.688-1.02 2.883 0 1.008.27 1.875.809 2.602.562.726 1.336 1.289 2.32 1.687 1.008.398 2.192.598 3.551.598 2.063 0 3.773-.375 5.133-1.125 1.383-.75 2.414-1.735 3.094-2.954.68-1.242 1.02-2.601 1.02-4.078v-4.183Zm-51.023-26.65a969.275 969.275 0 0 1-2.274 7.384 437.189 437.189 0 0 1-2.847 8.719l-2.896 8.367h15.87l-2.814-8.367a694.098 694.098 0 0 1-2.813-8.719c-.66-2.157-1.4-4.62-2.226-7.385Z"/>
</svg>
