<svg xmlns="http://www.w3.org/2000/svg" width="48" height="48" viewBox="0 0 48 48">
  <path fill="#014847" d="M45.034 20.828 27.172 2.966l-.664-.662L25.774 2h-3.548l-.734.304-.664.662L2.966 20.828l-.662.664-.304.734v3.548l.304.734.662.664 17.862 17.862.664.662.734.304h3.548l.734-.304.664-.662 17.862-17.862.662-.664.304-.734v-3.548l-.304-.734-.662-.664Z"/>
  <path fill="#fff" d="M29.116 29.685h-2.729l-.228-.228V23.07c.002-1.138-.444-2.018-1.817-2.047-.705-.019-1.514 0-2.376.035l-.13.133.002 8.266-.228.228h-2.73l-.227-.228V18.543l.228-.228h6.14a4.32 4.32 0 0 1 4.32 4.32v6.822l-.228.228h.003Z"/>
  <path fill="#32E6E2" d="M25.594 33.3v8.582l-.228.227h-2.73l-.228-.227V33.3l.228-.229h2.73l.228.229Zm-8.164-2.528.266.264v1.986l-2.5 2.501h-.376l-1.876-1.876v-.375l2.5-2.502 1.986.002Zm25.409-8.136v2.733l-.229.228h-9.65l-.228-.228v-2.733l.228-.228h9.651l.229.228Zm-27.57-.005v2.733l-.228.228H5.39l-.229-.228v-2.733l.229-.228h9.651l.228.228Zm2.427-7.559v1.985l-.264.267h-1.987l-2.5-2.5v-.375l1.875-1.878h.375l2.501 2.501Zm7.898-8.954V14.7l-.228.229h-2.73l-.228-.229V6.12l.228-.228h2.73l.228.227Z"/>
</svg>
