<svg xmlns="http://www.w3.org/2000/svg" width="48" height="48" viewBox="0 0 48 48">
  <path
    fill="#087ea4"
    d="M23.999 9.239c3.718-2.976 7.395-4.067 9.998-2.564 2.327 1.344 3.368 4.463 2.93 8.785-.037.38-.09.767-.15 1.158 4.297 1.681 7.045 4.21 7.212 7.101L44 24c0 3.007-2.786 5.649-7.22 7.382.059.391.113.779.15 1.158.438 4.322-.603 7.44-2.93 8.785a5.18 5.18 0 0 1-2.626.672c-2.207 0-4.782-1.16-7.375-3.235-2.595 2.075-5.169 3.234-7.373 3.234A5.168 5.168 0 0 1 14 41.325c-2.327-1.344-3.368-4.463-2.93-8.785.037-.38.09-.767.15-1.158C6.787 29.645 4 27.007 4 24c0-2.687 2.18-5.151 6.14-6.931a20.81 20.81 0 0 1 1.08-.448c-.06-.392-.113-.78-.15-1.16-.438-4.322.603-7.441 2.93-8.785 2.603-1.503 6.28-.412 9.999 2.564Zm10.956 22.773a33.67 33.67 0 0 1-5.643 1.185A33.898 33.898 0 0 1 25.46 37.5c3.073 2.376 5.884 3.162 7.589 2.174 1.514-.874 2.247-3.154 2.042-6.302l-.05-.641a19.288 19.288 0 0 0-.086-.719Zm-21.991.719c-.346 3.37.329 5.85 1.839 6.85l.152.093c1.706.985 4.515.202 7.59-2.174a33.905 33.905 0 0 1-3.852-4.303 33.7 33.7 0 0 1-5.644-1.185 19.03 19.03 0 0 0-.085.719Zm13.725.716a44.29 44.29 0 0 1-2.689.085 44.45 44.45 0 0 1-2.68-.085c.83.998 1.726 1.942 2.68 2.823a29.826 29.826 0 0 0 2.689-2.823Zm-2.69-17.068c-1.43 0-2.859.073-4.28.223a41.96 41.96 0 0 0-2.314 3.587 40.945 40.945 0 0 0-1.943 3.81 40.985 40.985 0 0 0 1.943 3.812 41.426 41.426 0 0 0 2.32 3.599c1.42.145 2.846.218 4.272.217a41.472 41.472 0 0 0 4.273-.217 41.569 41.569 0 0 0 1.78-2.677l.543-.922a41.323 41.323 0 0 0 1.942-3.812 41.32 41.32 0 0 0-1.942-3.81 42.113 42.113 0 0 0-2.323-3.593 41.547 41.547 0 0 0-4.271-.217Zm-9.513 10.026a29.914 29.914 0 0 0-1.095 3.734c1.083.337 2.184.612 3.298.822l.479.09a51.95 51.95 0 0 1-1.411-2.286 39.647 39.647 0 0 1-1.27-2.36Zm19.026 0c-.398.789-.82 1.578-1.27 2.36a42.427 42.427 0 0 1-1.41 2.285 29.565 29.565 0 0 0 3.774-.911 29.894 29.894 0 0 0-.936-3.28l-.158-.454Zm-22.591-7.6C7.739 20.241 5.905 22.134 5.905 24c0 1.97 2.084 4.014 5.679 5.489a33.982 33.982 0 0 1 1.8-5.489 34.057 34.057 0 0 1-1.798-5.476 53 53 0 0 0-.665.282Zm25.499-.293A34.105 34.105 0 0 1 34.62 24a34.11 34.11 0 0 1 1.627 4.784l.172.705c3.595-1.475 5.679-3.52 5.679-5.489 0-1.968-2.09-4.012-5.678-5.487Zm-12.35 1.621a3.832 3.832 0 1 1-.001 7.664 3.832 3.832 0 0 1 .001-7.664Zm6.751-3.185a41.34 41.34 0 0 1 1.073 1.698l.346.59c.456.78.878 1.57 1.27 2.358.446-1.22.812-2.467 1.096-3.734a29.57 29.57 0 0 0-3.785-.912Zm-13.66.011a29.972 29.972 0 0 0-3.767.913c.248 1.105.559 2.195.93 3.264l.155.457a44.299 44.299 0 0 1 2.682-4.634Zm-.517-9.048a3.345 3.345 0 0 0-1.693.415c-1.513.874-2.249 3.154-2.04 6.301l.049.64c.022.238.052.477.085.719a34.172 34.172 0 0 1 5.644-1.18 33.815 33.815 0 0 1 3.855-4.305c-2.205-1.705-4.275-2.59-5.9-2.59Zm14.712-.002c-1.625 0-3.695.886-5.9 2.591a33.772 33.772 0 0 1 3.853 4.301c1.911.233 3.8.63 5.643 1.185.034-.242.062-.482.086-.719.353-3.48-.372-6.01-1.987-6.943a3.337 3.337 0 0 0-1.473-.413l-.223-.002Zm-7.365 3.819a29.657 29.657 0 0 0-2.68 2.823 41.925 41.925 0 0 1 5.369 0 29.653 29.653 0 0 0-2.689-2.823Z"
  />
</svg>
