<svg xmlns="http://www.w3.org/2000/svg" width="48" height="48" viewBox="0 0 48 48">
  <path
    d="M24 10.556c-5.867 0-9.533 2.933-11 8.8 2.2-2.934 4.767-4.034 7.7-3.3 1.674.418 2.87 1.632 4.194 2.976 2.157 2.19 4.653 4.724 10.106 4.724 5.867 0 9.533-2.934 11-8.8-2.2 2.933-4.767 4.033-7.7 3.3-1.674-.419-2.87-1.633-4.194-2.977-2.157-2.19-4.653-4.723-10.106-4.723Zm-11 13.2c-5.867 0-9.533 2.933-11 8.8 2.2-2.934 4.767-4.034 7.7-3.3 1.674.418 2.87 1.632 4.194 2.976 2.157 2.19 4.653 4.724 10.106 4.724 5.867 0 9.533-2.934 11-8.8-2.2 2.933-4.767 4.033-7.7 3.3-1.674-.418-2.87-1.633-4.194-2.977-2.157-2.19-4.653-4.723-10.106-4.723Z"
  />
</svg>
