<svg xmlns="http://www.w3.org/2000/svg" width="48" height="48" viewBox="0 0 48 48">
  <path
    d="M22.492 4.038c.528-.07 1.086-.022 1.619-.022 1.972 0 3.91.306 5.797.886a20.443 20.443 0 0 1 6.632 3.484c2.427 1.91 4.438 4.415 5.729 7.226 2.414 5.26 2.396 11.635-.077 16.873-1.6 3.387-4.165 6.221-7.27 8.288-2.535 1.687-5.498 2.72-8.513 3.085-3.838.465-7.987-.215-11.437-1.984-6.477-3.32-10.88-10.005-10.968-17.33-.017-1.411.005-2.832.285-4.23.455-2.278 1.25-4.48 2.442-6.478a19.987 19.987 0 0 1 4.95-5.607 20.573 20.573 0 0 1 7.938-3.761c.696-.16 1.394-.248 2.096-.334l.221-.026.556-.07Zm-2.254 2.354c-2.119.468-4.017 1.379-5.846 2.528-1.061.667-2.077 1.35-2.997 2.209-1.369 1.276-2.415 2.828-3.327 4.449-.94 1.67-1.542 3.616-1.834 5.504-.285 1.853-.332 3.8-.005 5.655.409 2.318 1.188 4.493 2.417 6.505.414-.193.707-.633 1.05-.93a16.806 16.806 0 0 1 2.198-1.631c.289-.178.586-.315.9-.441.118-.048.311-.091.367-.221.089-.207-.075-.566-.103-.78a12.008 12.008 0 0 1-.114-1.852 16.14 16.14 0 0 1 1.02-5.304c.482-1.268 1.218-2.42 2.091-3.453.296-.35.61-.677.936-1 .192-.192.43-.355.55-.601-.627 0-1.254.181-1.85.364-1.283.396-2.533.982-3.597 1.81-.485.376-.84.871-1.3 1.268-.14.122-.393.285-.587.193-.294-.139-.249-.717-.283-.983-.13-1.022.258-2.316.75-3.202.79-1.423 2.252-2.638 3.968-2.596.741.018 1.39.276 2.099.444-.18-.255-.42-.441-.65-.65-.56-.513-1.175-.982-1.849-1.336-.27-.142-.563-.229-.849-.333-.144-.053-.325-.125-.38-.285-.1-.297.434-.571.63-.696.757-.483 1.686-.88 2.598-.903 1.425-.035 2.817.756 3.404 2.101.206.473.267.973.308 1.478l.007.095.01.142.004.047.007.095.007.095c.448-.365.763-.902 1.2-1.293 1.021-.914 2.42-1.32 3.747-.908 1.2.372 2.242 1.2 2.855 2.3.16.289.608.993.285 1.28-.253.225-.575.05-.842-.043a4.556 4.556 0 0 0-.62-.157l-.115-.023a23.052 23.052 0 0 1-.114-.022c-.726-.146-1.57-.13-2.298-.003-.47.083-.93.25-1.4.32v.1a3.732 3.732 0 0 1 3.155 1.851c.262.46.393.986.493 1.502.124.637.037 1.33-.137 1.951-.058.208-.165.561-.413.61-.176.033-.326-.142-.426-.26-.263-.31-.514-.604-.823-.871a33.685 33.685 0 0 0-2.448-1.902c-.446-.32-.935-.734-1.449-.93.145.349.286.673.335 1.051.145 1.115-.322 2.164-1.022 3.003-.214.256-.443.514-.712.712-.112.083-.252.19-.4.167-.463-.073-.518-.771-.59-1.13-.24-1.211-.143-2.415.19-3.602-.297.15-.511.48-.698.75a8.877 8.877 0 0 0-1.021 1.902c-1.017 2.698-1.007 5.858.31 8.456.147.29.37.251.66.251h.131l.132-.002c.263-.003.526-.004.786.03.135.019.323.003.43.102.128.12.06.324.03.47a5.87 5.87 0 0 0-.11 1.202c.547-.085.699-.962.893-1.402.22-.498.443-.996.646-1.5.1-.249.234-.526.198-.802-.039-.309-.262-.637-.418-.9-.295-.5-.63-1.013-.847-1.552-.173-.43-.012-.968.477-1.122.27-.085.558.081.733.276.369.41.606 1.017.873 1.497l2.085 3.753c.177.318.354.635.535.95.071.124.143.314.288.366.129.047.305-.02.433-.045.333-.067.665-.138 1-.199.4-.072 1.01-.059 1.298-.371-.422-.134-.91-.126-1.349-.096-.264.018-.556.113-.798-.042-.361-.229-.601-.759-.822-1.113-.544-.876-1.057-1.764-1.578-2.653l-.083-.141-.168-.283a22.375 22.375 0 0 1-.247-.426c-.063-.111-.155-.257-.066-.379.094-.128.298-.136.483-.136h.036c.073 0 .14 0 .195-.007.744-.098 1.498-.179 2.249-.179-.059-.203-.226-.433-.172-.65.12-.487.82-.64 1.145-.29.219.235.346.557.488.84.188.373.402.735.603 1.101.352.642.736 1.265 1.098 1.901l.091.157.047.078c.156.261.313.524.397.816-1.256-.057-2.2-1.516-2.748-2.502-.043.158.027.299.084.45.118.316.26.616.437.901.254.409.544.829.928 1.125.681.526 1.58.529 2.398.472.526-.036 1.182-.275 1.7-.113.515.162.723.731.417 1.169-.23.327-.536.45-.917.5.27.578.622 1.114.878 1.701.106.245.218.62.473.749.17.086.413.006.597.002-.184-.488-.53-.902-.7-1.401.518.024 1.018.293 1.5.466a81.28 81.28 0 0 1 2.816 1.083l.431.172c.385.154.771.306 1.15.474.138.061.33.204.483.116.125-.072.206-.243.283-.36.215-.325.41-.662.604-1 .774-1.356 1.342-2.841 1.721-4.354 1.251-4.99.178-10.494-2.829-14.662-1.155-1.601-2.608-2.985-4.21-4.132-4.008-2.869-9.267-4.018-14.09-2.952Zm8.195 24.88c-1.063.277-2.158.528-3.248.67.143.487.494.962.75 1.4.099.17.205.397.401.47.221.084.489-.051.698-.12-.097-.264-.26-.502-.393-.75-.055-.102-.14-.223-.094-.345.085-.23.44-.216.636-.256.518-.105 1.031-.236 1.55-.34.19-.038.456-.142.648-.078.144.048.23.167.312.29l.037.056c.05.074.1.146.162.203.21.19.523.218.789.27-.162-.365-.432-.685-.605-1.051-.1-.213-.183-.526-.404-.649-.303-.17-.93.15-1.24.23Zm-6.696-2.433c-.05.634-.244 1.15-.55 1.701.35.044.707.06 1.05.145.257.064.494.186.75.255-.137-.373-.39-.706-.586-1.05-.198-.348-.375-.771-.664-1.051Z"
  />
</svg>
