<svg xmlns="http://www.w3.org/2000/svg" width="48" height="48" fill="none" viewBox="0 0 48 48">
  <g id="tanstack">
    <path id="Vector" fill="oklch(59.6% 0.176 163.2)" d="M22.46 4.038c.528-.07 1.087-.022 1.62-.022 1.972 0 3.909.306 5.796.886a20.442 20.442 0 0 1 6.632 3.484c2.427 1.91 4.439 4.415 5.729 7.226 2.414 5.26 2.397 11.635-.077 16.873-1.6 3.386-4.165 6.221-7.27 8.288-2.534 1.687-5.498 2.719-8.513 3.084-3.838.466-7.987-.214-11.437-1.983-6.477-3.321-10.88-10.005-10.967-17.33-.017-1.412.005-2.832.284-4.23.456-2.278 1.25-4.48 2.442-6.478a19.988 19.988 0 0 1 4.95-5.608 20.574 20.574 0 0 1 7.939-3.76c.695-.16 1.393-.248 2.095-.334l.222-.027c.185-.022.37-.045.555-.07Zm-6.7 33.3c-.892.095-1.833.257-2.598.758.172.042.37 0 .55 0 .431 0 .867-.017 1.298.002 1.08.047 2.205.22 3.248.506 1.335.366 2.511 1.087 3.797 1.572 1.357.513 2.708.672 4.147.672.726 0 1.446-.002 2.149-.2-.367-.195-.892-.159-1.3-.24a18.508 18.508 0 0 1-2.597-.695 20.716 20.716 0 0 1-1.825-.779l-.385-.18a23.56 23.56 0 0 0-1.688-.737c-1.51-.57-3.185-.853-4.796-.68Zm1.349-3.796c-1.768 0-3.555.312-5.147 1.114a7.658 7.658 0 0 0-1.099.682c-.106.078-.293.179-.332.315-.04.138.102.253.182.341.398-.212.776-.436 1.2-.597 2.739-1.04 6.06-.822 8.793.132 1.364.475 2.62 1.187 3.948 1.745a17.612 17.612 0 0 0 4.596 1.236c1.882.245 4.027.047 5.746-.802.605-.298 1.444-.753 1.7-1.413-.316.027-.6.162-.9.256-.477.148-.96.273-1.45.372-1.66.332-3.424.4-5.096.099-1.575-.284-3.039-.856-4.495-1.457l-.186-.076-.372-.155-.186-.077a42.58 42.58 0 0 0-2.255-.88c-1.484-.517-3.075-.835-4.647-.835Zm3.098-27.15c-2.12.467-4.017 1.379-5.846 2.528-1.062.667-2.078 1.35-2.998 2.209-1.369 1.276-2.414 2.828-3.327 4.449-.94 1.67-1.542 3.616-1.833 5.504-.286 1.853-.333 3.8-.006 5.655.41 2.318 1.188 4.493 2.418 6.505.413-.193.706-.633 1.049-.93a16.8 16.8 0 0 1 2.199-1.631 5.76 5.76 0 0 1 .899-.441c.118-.048.312-.091.367-.221.089-.207-.075-.566-.103-.78a12.02 12.02 0 0 1-.114-1.852 16.14 16.14 0 0 1 1.02-5.304c.482-1.268 1.219-2.42 2.091-3.453.296-.35.611-.677.936-1 .192-.192.43-.356.55-.601-.627 0-1.253.18-1.85.364-1.283.395-2.533.982-3.597 1.809-.485.377-.84.872-1.3 1.269-.14.122-.393.285-.587.193-.294-.139-.249-.717-.282-.983-.13-1.023.258-2.316.75-3.203.79-1.423 2.251-2.638 3.968-2.595.74.018 1.39.276 2.098.444-.18-.256-.42-.442-.65-.65-.56-.514-1.174-.982-1.848-1.336-.271-.142-.563-.229-.85-.334-.144-.052-.325-.125-.379-.285-.1-.296.433-.57.63-.695.757-.483 1.686-.88 2.597-.903 1.425-.035 2.817.756 3.404 2.1.207.474.268.974.308 1.479l.008.094.01.143.003.047.008.095.007.095c.447-.365.762-.902 1.199-1.293 1.022-.914 2.42-1.32 3.747-.908 1.2.372 2.242 1.2 2.855 2.3.16.289.608.993.285 1.28-.253.225-.574.05-.841-.044a4.533 4.533 0 0 0-.621-.156l-.114-.023a38.581 38.581 0 0 1-.115-.022c-.726-.146-1.57-.13-2.298-.003-.47.083-.93.25-1.4.32v.1a3.732 3.732 0 0 1 3.155 1.851c.262.46.393.986.493 1.502.124.637.037 1.33-.137 1.951-.058.208-.164.561-.413.609-.176.034-.325-.141-.426-.26-.263-.309-.513-.603-.822-.87a33.683 33.683 0 0 0-2.449-1.902c-.446-.32-.934-.735-1.449-.93.145.349.286.672.336 1.051.144 1.115-.322 2.164-1.023 3.003-.214.256-.442.513-.712.712-.111.083-.252.19-.4.167-.463-.073-.518-.772-.589-1.13-.24-1.212-.144-2.415.19-3.602-.297.15-.512.48-.698.75a8.877 8.877 0 0 0-1.022 1.902c-1.017 2.698-1.007 5.858.31 8.456.147.29.37.25.66.25h.132l.131-.001c.263-.003.527-.004.787.03.135.019.322.003.43.102.127.12.059.324.03.47a5.83 5.83 0 0 0-.11 1.201c.546-.084.698-.961.892-1.4.22-.499.443-.997.646-1.502.1-.248.234-.526.199-.8-.04-.31-.263-.638-.419-.902-.294-.498-.63-1.012-.846-1.55-.174-.431-.012-.97.477-1.123.27-.085.557.081.733.276.368.409.606 1.017.873 1.497l2.084 3.753c.177.318.355.635.536.95.07.124.142.314.287.366.129.047.305-.02.433-.045.333-.067.666-.139 1-.2.4-.071 1.01-.058 1.299-.37-.422-.134-.91-.126-1.35-.096-.263.018-.556.112-.798-.042-.36-.23-.6-.759-.821-1.114-.545-.875-1.058-1.763-1.579-2.652l-.083-.141-.168-.283a22.677 22.677 0 0 1-.247-.426c-.062-.111-.154-.257-.065-.38.093-.127.298-.135.482-.135h.037c.072 0 .14 0 .195-.007.744-.098 1.498-.179 2.248-.179-.058-.203-.225-.433-.172-.65.12-.487.82-.64 1.146-.29.218.234.345.557.488.84.187.373.401.734.602 1.1.352.642.736 1.266 1.098 1.902.03.053.06.105.092.157l.047.078c.156.261.313.524.397.816-1.257-.057-2.2-1.516-2.748-2.502-.044.158.027.299.084.45.118.316.259.616.436.901.254.408.545.829.928 1.125.681.525 1.58.528 2.399.472.525-.036 1.182-.275 1.699-.113.516.162.723.731.417 1.168-.23.328-.536.451-.917.5.27.579.622 1.115.878 1.702.107.245.218.62.473.749.17.086.414.006.598.002-.185-.488-.53-.902-.7-1.401.517.023 1.017.293 1.5.466.946.338 1.882.709 2.816 1.083l.43.172c.385.154.771.306 1.15.474.139.06.33.204.483.116.125-.072.206-.244.283-.36.216-.325.41-.662.604-1 .774-1.356 1.342-2.841 1.722-4.354 1.25-4.99.177-10.494-2.83-14.662-1.155-1.601-2.608-2.986-4.21-4.132-4.008-2.869-9.267-4.018-14.09-2.953Zm8.194 24.88c-1.063.277-2.158.528-3.248.669.144.488.494.963.75 1.401.1.17.206.397.401.47.222.083.49-.051.698-.12-.097-.264-.26-.502-.393-.75-.055-.102-.14-.224-.094-.345.085-.23.44-.216.637-.256.518-.105 1.03-.236 1.549-.34.19-.038.457-.142.648-.078.144.048.23.167.313.29l.037.056c.048.074.099.146.161.203.21.189.523.218.79.27-.163-.366-.433-.685-.606-1.051-.1-.213-.183-.526-.403-.65-.304-.169-.93.15-1.24.23Zm-6.695-2.433c-.05.634-.245 1.15-.55 1.7.35.045.706.06 1.05.146.256.064.494.185.749.255-.137-.373-.39-.706-.586-1.05-.198-.349-.375-.771-.663-1.052Z"/>
  </g>
  <defs>
    <radialGradient id="paint0_radial_1340_30605" cx="0" cy="0" r="1" gradientTransform="matrix(-40 40 -40.0632 -39.9367 44.032 4)" gradientUnits="userSpaceOnUse">
      <stop offset=".3" stop-color="var(--color-green-600)"/>
      <stop offset=".854" stop-color="var(--color-emerald-700)"/>
    </radialGradient>
  </defs>
</svg>
