<svg xmlns="http://www.w3.org/2000/svg" width="48" height="48" viewBox="0 0 48 48">
  <path
    d="M40.313 6H7.687C6.756 6 6 6.756 6 7.688v32.624C6 41.245 6.756 42 7.688 42h32.624c.933 0 1.688-.755 1.688-1.688V7.688C42 6.755 41.245 6 40.312 6Z"
  />
  <path
    fill="#fff"
    fill-rule="evenodd"
    d="M26.886 33.975v3.945c.64.329 1.395.575 2.268.74.872.164 1.792.246 2.759.246.942 0 1.837-.09 2.685-.27.849-.182 1.592-.48 2.231-.895a4.55 4.55 0 0 0 1.518-1.627c.373-.67.56-1.498.56-2.484 0-.715-.107-1.341-.32-1.88a4.395 4.395 0 0 0-.922-1.436 6.75 6.75 0 0 0-1.444-1.128 15.455 15.455 0 0 0-1.9-.943 24.054 24.054 0 0 1-1.388-.622 7.032 7.032 0 0 1-1.045-.617 2.681 2.681 0 0 1-.663-.665 1.404 1.404 0 0 1-.234-.795c0-.272.07-.516.21-.734.139-.218.335-.405.59-.56.253-.157.564-.278.933-.364.369-.087.779-.13 1.23-.13a8.187 8.187 0 0 1 2.139.302c.368.103.726.232 1.074.388.349.157.67.337.965.543v-3.686a9.577 9.577 0 0 0-1.96-.512 15.926 15.926 0 0 0-2.44-.166c-.934 0-1.819.1-2.655.302a6.746 6.746 0 0 0-2.206.943 4.706 4.706 0 0 0-1.505 1.633c-.37.662-.553 1.453-.553 2.373 0 1.176.338 2.178 1.014 3.008.675.83 1.702 1.533 3.078 2.108.541.222 1.045.44 1.512.653.467.214.87.436 1.21.666.34.23.609.481.805.752.197.271.295.58.295.925 0 .255-.06.49-.184.709a1.64 1.64 0 0 1-.559.566c-.25.16-.561.286-.934.377-.373.09-.81.135-1.309.135a7.55 7.55 0 0 1-4.855-1.8Zm-6.626-9.82h5.146v-3.249H11.063v3.25h5.12v14.469h4.077v-14.47Z"
    clip-rule="evenodd"
  />
</svg>
