<svg xmlns="http://www.w3.org/2000/svg" width="48" height="48" viewBox="0 0 48 48">
  <path
    d="M8.4 10.667C3.16 18.17 3.128 29.8 8.4 37.333H4.858c-5.273-7.532-5.242-19.162 0-26.666H8.4Zm35.736 16.874a25.327 25.327 0 0 1-.604 3.002h3.553a22.784 22.784 0 0 1-1.26 3.544h-3.553a20.004 20.004 0 0 1-1.84 3.246H36.89a20.004 20.004 0 0 0 1.84-3.246h-3.559c.517-1.144.938-2.33 1.259-3.544h3.558c.262-.987.463-1.99.604-3.002h3.543ZM31.709 11.106c.524 0 .83.594.524 1.019l-4.262 5.969c-.61.853 0 2.04 1.05 2.04h6.482c.538 0 .84.618.506 1.042l-12.21 15.537a.645.645 0 0 1-1.151-.397v-5.87a1.29 1.29 0 0 0-1.29-1.29h-6.482a.645.645 0 0 1-.524-1.018l4.262-5.967a1.291 1.291 0 0 0-.378-1.853 1.29 1.29 0 0 0-.672-.187H9.72a.643.643 0 0 1-.524-1.019l5.524-7.735a.64.64 0 0 1 .525-.27H31.71Zm8.725-.439c2.622 3.755 3.94 8.542 3.942 13.333h-3.543c-.003-4.79-1.32-9.578-3.941-13.333h3.542Z"
  />
</svg>
