<svg xmlns="http://www.w3.org/2000/svg" width="48" height="48" viewBox="0 0 48 48">
  <g clip-path="url(#a)">
    <path
      fill="#6254FE"
      d="M23.8 36.713a.644.644 0 0 1-1.152-.397v-5.87a1.29 1.29 0 0 0-1.29-1.29h-6.482a.643.643 0 0 1-.524-1.019l4.263-5.966a1.29 1.29 0 0 0-1.051-2.04H9.72a.645.645 0 0 1-.524-1.019l5.524-7.735a.64.64 0 0 1 .525-.27H31.71c.524 0 .83.593.524 1.018l-4.262 5.968c-.61.854 0 2.04 1.05 2.04h6.482c.538 0 .84.619.506 1.043L23.8 36.713Z"
    />
    <mask
      id="b"
      width="28"
      height="26"
      x="9"
      y="11"
      maskUnits="userSpaceOnUse"
      style="mask-type: alpha"
    >
      <path
        fill="#833BFF"
        d="M23.8 36.713a.644.644 0 0 1-1.152-.397v-5.87a1.29 1.29 0 0 0-1.29-1.29h-6.482a.643.643 0 0 1-.524-1.019l4.263-5.966a1.29 1.29 0 0 0-1.051-2.04H9.72a.645.645 0 0 1-.524-1.019l5.524-7.735a.64.64 0 0 1 .525-.27H31.71c.524 0 .83.593.524 1.018l-4.262 5.968c-.61.854 0 2.04 1.05 2.04h6.482c.538 0 .84.619.506 1.043L23.8 36.713Z"
      />
    </mask>
    <g mask="url(#b)">
      <g filter="url(#c)">
        <path
          fill="#EDE6FF"
          d="M23.236 32.15c.006 1.733-3.74 3.15-8.368 3.165-4.628.015-8.383-1.378-8.39-3.111-.005-1.734 3.742-3.151 8.37-3.166 4.627-.015 8.383 1.378 8.388 3.111Z"
        />
      </g>
      <g filter="url(#d)">
        <path
          fill="#EDE6FF"
          d="M20.645 21.414c.01 3.272-7.597 5.95-16.991 5.98-9.395.031-17.02-2.597-17.03-5.87-.01-3.272 7.596-5.95 16.991-5.98 9.395-.03 17.02 2.598 17.03 5.87Z"
        />
      </g>
      <g filter="url(#e)">
        <path
          fill="#4E14FF"
          d="M20.708 20.584c.006 1.734-7.767 3.164-17.362 3.195-9.594.031-17.376-1.349-17.382-3.082-.005-1.733 7.768-3.164 17.362-3.195 9.594-.031 17.376 1.349 17.382 3.082Z"
        />
      </g>
      <g filter="url(#f)">
        <path
          fill="#4E14FF"
          d="M23.456 30.839c.005 1.733-7.797 3.164-17.426 3.195-9.63.031-17.44-1.349-17.447-3.082-.005-1.733 7.797-3.164 17.426-3.195 9.63-.031 17.44 1.349 17.447 3.082Z"
        />
      </g>
      <g filter="url(#g)">
        <path
          fill="#4E14FF"
          d="M24.33 31.494c.005 1.733-7.796 3.164-17.426 3.195-9.63.032-17.44-1.348-17.446-3.082-.006-1.733 7.796-3.164 17.426-3.195 9.63-.031 17.44 1.349 17.446 3.082Z"
        />
      </g>
      <g filter="url(#h)">
        <path
          fill="#EDE6FF"
          d="M26.73 16.939c.258-4.421 6.091-7.676 13.028-7.27 6.936.406 12.35 4.319 12.091 8.74-.259 4.42-6.092 7.676-13.028 7.27-6.937-.406-12.35-4.32-12.092-8.74Z"
        />
      </g>
      <g filter="url(#i)">
        <path
          fill="#4E14FF"
          d="M27.669 19.847c-.019-1.092 5.45-2.072 12.216-2.189 6.766-.117 12.266.673 12.284 1.765.02 1.092-5.45 2.072-12.216 2.19-6.765.116-12.265-.674-12.284-1.766Z"
        />
      </g>
      <g filter="url(#j)">
        <path
          fill="#4E14FF"
          d="M27.669 19.847c-.019-1.092 5.45-2.072 12.216-2.189 6.766-.117 12.266.673 12.284 1.765.02 1.092-5.45 2.072-12.216 2.19-6.765.116-12.265-.674-12.284-1.766Z"
        />
      </g>
      <g filter="url(#k)">
        <path
          fill="#4E14FF"
          d="M-1.318 29.015c1.07.883 6.662-4.131 12.49-11.199C17 10.749 20.857 4.304 19.787 3.422c-1.07-.882-6.661 4.132-12.49 11.2-5.827 7.067-9.685 13.511-8.615 14.393Z"
        />
      </g>
      <g filter="url(#l)">
        <path
          fill="#4E14FF"
          d="M25.907 20.727c1.095.851 6.543-4.319 12.169-11.548 5.626-7.23 9.3-13.78 8.206-14.632-1.095-.851-6.543 4.319-12.169 11.548-5.626 7.23-9.3 13.78-8.206 14.632Z"
        />
      </g>
      <g filter="url(#m)">
        <path
          fill="#2BFDD2"
          d="M27.933 22.318c2.057 1.6 5.682.383 8.096-2.72 2.415-3.102 2.705-6.915.649-8.515-2.057-1.6-5.681-.383-8.096 2.72-2.415 3.102-2.705 6.915-.649 8.515Z"
        />
      </g>
      <g filter="url(#n)">
        <path
          fill="#4E14FF"
          d="M-2.243 46.04c1.094.85 6.542-4.32 12.168-11.549 5.627-7.229 9.3-13.78 8.206-14.631-1.094-.852-6.542 4.318-12.168 11.547-5.627 7.23-9.3 13.78-8.206 14.632Z"
        />
      </g>
      <g filter="url(#o)">
        <path
          fill="#4E14FF"
          d="M-2.243 46.04c1.094.85 6.542-4.32 12.168-11.549 5.627-7.229 9.3-13.78 8.206-14.631-1.094-.852-6.542 4.318-12.168 11.547-5.627 7.23-9.3 13.78-8.206 14.632Z"
        />
      </g>
      <g filter="url(#p)">
        <path
          fill="#4E14FF"
          d="M19.018 41.142c1.163.905 6.667-4.222 12.293-11.451 5.626-7.23 9.244-13.824 8.081-14.729-1.162-.905-6.666 4.222-12.292 11.451-5.626 7.23-9.245 13.824-8.082 14.729Z"
        />
      </g>
      <g filter="url(#q)">
        <path
          fill="#2BFDD2"
          d="M24.382 39.385c1.997 1.555 6.917-1.426 10.99-6.658 4.07-5.232 5.753-10.734 3.755-12.288-1.997-1.555-6.917 1.427-10.989 6.659-4.072 5.231-5.753 10.733-3.756 12.287Z"
        />
      </g>
    </g>
    <path
      fill="#08060D"
      d="M4.859 10.667c-5.243 7.504-5.274 19.134 0 26.666H8.4C3.128 29.8 3.16 18.17 8.4 10.667H4.859ZM40.833 24h3.543c-.001-4.79-1.32-9.579-3.943-13.333h-3.541c2.621 3.754 3.939 8.542 3.941 13.333Zm6.252 6.543h-3.553c.262-.988.463-1.99.604-3.002h-3.543a25.32 25.32 0 0 1-.604 3.002h-3.558a22.694 22.694 0 0 1-1.259 3.544h3.559a20.005 20.005 0 0 1-1.84 3.246h3.541a19.997 19.997 0 0 0 1.84-3.246h3.553a22.77 22.77 0 0 0 1.26-3.544Z"
    />
  </g>
  <defs>
    <filter
      id="c"
      width="34.213"
      height="23.733"
      x="-2.249"
      y="20.31"
      color-interpolation-filters="sRGB"
      filterUnits="userSpaceOnUse"
    >
      <feFlood flood-opacity="0" result="BackgroundImageFix" />
      <feBlend in="SourceGraphic" in2="BackgroundImageFix" result="shape" />
      <feGaussianBlur result="effect1_foregroundBlur_1228_437" stdDeviation="4.364" />
    </filter>
    <filter
      id="d"
      width="51.477"
      height="29.307"
      x="-22.104"
      y="6.816"
      color-interpolation-filters="sRGB"
      filterUnits="userSpaceOnUse"
    >
      <feFlood flood-opacity="0" result="BackgroundImageFix" />
      <feBlend in="SourceGraphic" in2="BackgroundImageFix" result="shape" />
      <feGaussianBlur result="effect1_foregroundBlur_1228_437" stdDeviation="4.364" />
    </filter>
    <filter
      id="e"
      width="45.218"
      height="16.753"
      x="-19.273"
      y="12.264"
      color-interpolation-filters="sRGB"
      filterUnits="userSpaceOnUse"
    >
      <feFlood flood-opacity="0" result="BackgroundImageFix" />
      <feBlend in="SourceGraphic" in2="BackgroundImageFix" result="shape" />
      <feGaussianBlur result="effect1_foregroundBlur_1228_437" stdDeviation="2.619" />
    </filter>
    <filter
      id="f"
      width="45.347"
      height="16.753"
      x="-16.654"
      y="22.519"
      color-interpolation-filters="sRGB"
      filterUnits="userSpaceOnUse"
    >
      <feFlood flood-opacity="0" result="BackgroundImageFix" />
      <feBlend in="SourceGraphic" in2="BackgroundImageFix" result="shape" />
      <feGaussianBlur result="effect1_foregroundBlur_1228_437" stdDeviation="2.619" />
    </filter>
    <filter
      id="g"
      width="45.346"
      height="16.753"
      x="-15.779"
      y="23.174"
      color-interpolation-filters="sRGB"
      filterUnits="userSpaceOnUse"
    >
      <feFlood flood-opacity="0" result="BackgroundImageFix" />
      <feBlend in="SourceGraphic" in2="BackgroundImageFix" result="shape" />
      <feGaussianBlur result="effect1_foregroundBlur_1228_437" stdDeviation="2.619" />
    </filter>
    <filter
      id="h"
      width="42.593"
      height="33.534"
      x="17.992"
      y=".907"
      color-interpolation-filters="sRGB"
      filterUnits="userSpaceOnUse"
    >
      <feFlood flood-opacity="0" result="BackgroundImageFix" />
      <feBlend in="SourceGraphic" in2="BackgroundImageFix" result="shape" />
      <feGaussianBlur result="effect1_foregroundBlur_1228_437" stdDeviation="4.364" />
    </filter>
    <filter
      id="i"
      width="34.975"
      height="14.452"
      x="22.432"
      y="12.409"
      color-interpolation-filters="sRGB"
      filterUnits="userSpaceOnUse"
    >
      <feFlood flood-opacity="0" result="BackgroundImageFix" />
      <feBlend in="SourceGraphic" in2="BackgroundImageFix" result="shape" />
      <feGaussianBlur result="effect1_foregroundBlur_1228_437" stdDeviation="2.619" />
    </filter>
    <filter
      id="j"
      width="34.975"
      height="14.452"
      x="22.432"
      y="12.409"
      color-interpolation-filters="sRGB"
      filterUnits="userSpaceOnUse"
    >
      <feFlood flood-opacity="0" result="BackgroundImageFix" />
      <feBlend in="SourceGraphic" in2="BackgroundImageFix" result="shape" />
      <feGaussianBlur result="effect1_foregroundBlur_1228_437" stdDeviation="2.619" />
    </filter>
    <filter
      id="k"
      width="31.936"
      height="36.27"
      x="-6.733"
      y="-1.916"
      color-interpolation-filters="sRGB"
      filterUnits="userSpaceOnUse"
    >
      <feFlood flood-opacity="0" result="BackgroundImageFix" />
      <feBlend in="SourceGraphic" in2="BackgroundImageFix" result="shape" />
      <feGaussianBlur result="effect1_foregroundBlur_1228_437" stdDeviation="2.619" />
    </filter>
    <filter
      id="l"
      width="31.235"
      height="36.838"
      x="20.477"
      y="-10.782"
      color-interpolation-filters="sRGB"
      filterUnits="userSpaceOnUse"
    >
      <feFlood flood-opacity="0" result="BackgroundImageFix" />
      <feBlend in="SourceGraphic" in2="BackgroundImageFix" result="shape" />
      <feGaussianBlur result="effect1_foregroundBlur_1228_437" stdDeviation="2.619" />
    </filter>
    <filter
      id="m"
      width="21.961"
      height="23.12"
      x="21.325"
      y="5.141"
      color-interpolation-filters="sRGB"
      filterUnits="userSpaceOnUse"
    >
      <feFlood flood-opacity="0" result="BackgroundImageFix" />
      <feBlend in="SourceGraphic" in2="BackgroundImageFix" result="shape" />
      <feGaussianBlur result="effect1_foregroundBlur_1228_437" stdDeviation="2.619" />
    </filter>
    <filter
      id="n"
      width="31.235"
      height="36.838"
      x="-7.673"
      y="14.531"
      color-interpolation-filters="sRGB"
      filterUnits="userSpaceOnUse"
    >
      <feFlood flood-opacity="0" result="BackgroundImageFix" />
      <feBlend in="SourceGraphic" in2="BackgroundImageFix" result="shape" />
      <feGaussianBlur result="effect1_foregroundBlur_1228_437" stdDeviation="2.619" />
    </filter>
    <filter
      id="o"
      width="31.235"
      height="36.838"
      x="-7.673"
      y="14.531"
      color-interpolation-filters="sRGB"
      filterUnits="userSpaceOnUse"
    >
      <feFlood flood-opacity="0" result="BackgroundImageFix" />
      <feBlend in="SourceGraphic" in2="BackgroundImageFix" result="shape" />
      <feGaussianBlur result="effect1_foregroundBlur_1228_437" stdDeviation="2.619" />
    </filter>
    <filter
      id="p"
      width="31.284"
      height="36.861"
      x="13.563"
      y="9.621"
      color-interpolation-filters="sRGB"
      filterUnits="userSpaceOnUse"
    >
      <feFlood flood-opacity="0" result="BackgroundImageFix" />
      <feBlend in="SourceGraphic" in2="BackgroundImageFix" result="shape" />
      <feGaussianBlur result="effect1_foregroundBlur_1228_437" stdDeviation="2.619" />
    </filter>
    <filter
      id="q"
      width="26.902"
      height="30.245"
      x="18.304"
      y="14.79"
      color-interpolation-filters="sRGB"
      filterUnits="userSpaceOnUse"
    >
      <feFlood flood-opacity="0" result="BackgroundImageFix" />
      <feBlend in="SourceGraphic" in2="BackgroundImageFix" result="shape" />
      <feGaussianBlur result="effect1_foregroundBlur_1228_437" stdDeviation="2.619" />
    </filter>
    <clipPath id="a">
      <path fill="#fff" d="M0 10.667h48v26.667H0z" />
    </clipPath>
  </defs>
</svg>
