<svg xmlns="http://www.w3.org/2000/svg" width="48" height="48" fill="none" viewBox="0 0 48 48">
  <path fill="#000" d="M0 0h48v48H0z"/>
  <path fill="#fff" d="M21.14 15.496c.058 0 .088 0 .108.012.017.01.03.027.037.046.007.023 0 .05-.014.107l-4.486 18.701c-.014.056-.02.084-.013.106.006.02.019.037.036.047.02.012.05.012.108.012h6.882c.059 0 .088 0 .108.012.017.01.03.027.036.047.007.022 0 .05-.013.107l-.404 1.684a.196.196 0 0 1-.023.068.085.085 0 0 1-.035.027.202.202 0 0 1-.073.007H11.823c-1.89 0-3.423-1.597-3.423-3.567V19.063c0-1.97 1.533-3.567 3.423-3.567h9.317Zm15.008-3.976c1.907 0 3.452 1.598 3.452 3.568v13.85c0 1.97-1.546 3.566-3.452 3.566H19.463c-.058 0-.087 0-.107-.012a.084.084 0 0 1-.036-.047c-.007-.022 0-.05.014-.106l5.011-20.716a.196.196 0 0 1 .024-.069.084.084 0 0 1 .034-.027.196.196 0 0 1 .072-.007h11.673Z"/>
</svg>
