<svg xmlns="http://www.w3.org/2000/svg" width="48" height="48" fill="none" viewBox="0 0 48 48">
  <path fill="#000" d="M0 0h48v48H0z"/>
  <path fill="#fff" d="M12.625 11.75a.875.875 0 0 0-.875.875v19.25H10v-19.25A2.625 2.625 0 0 1 12.625 10h23.444c1.17 0 1.755 1.414.928 2.24l-14.44 14.44h4.068v-1.805h1.75v2.242c0 .725-.588 1.313-1.313 1.313h-6.254L17.8 31.438h13.637V20.5h1.75v10.938a1.75 1.75 0 0 1-1.75 1.75H16.05l-3.063 3.062h22.388a.875.875 0 0 0 .875-.875v-19.25H38v19.25A2.625 2.625 0 0 1 35.375 38H11.931c-1.17 0-1.755-1.414-.928-2.24l14.385-14.385h-4.013v1.75h-1.75v-2.188c0-.724.588-1.312 1.313-1.312h6.2l3.062-3.063H16.563V27.5h-1.75V16.562c0-.966.783-1.75 1.75-1.75H31.95l3.063-3.062H12.625Z"/>
</svg>
