<svg xmlns="http://www.w3.org/2000/svg" width="48" height="48" viewBox="0 0 48 48">
  <path
    d="M4 20c0-5.6 0-8.4 1.09-10.54a10 10 0 0 1 4.37-4.37C11.6 4 14.4 4 20 4h8c5.6 0 8.4 0 10.54 1.09a10 10 0 0 1 4.37 4.37C44 11.6 44 14.4 44 20v8c0 5.6 0 8.4-1.09 10.54a10.001 10.001 0 0 1-4.37 4.37C36.4 44 33.6 44 28 44h-8c-5.6 0-8.4 0-10.54-1.09a10 10 0 0 1-4.37-4.37C4 36.4 4 33.6 4 28v-8Z"
  />
  <path
    fill="#fff"
    d="M13.438 12.625a.813.813 0 0 0-.813.813v17.874H11V13.438A2.437 2.437 0 0 1 13.438 11h21.769c1.085 0 1.63 1.313.861 2.08L22.662 26.489h3.776v-1.675h1.625v2.082c0 .673-.545 1.218-1.218 1.218h-5.808l-2.793 2.793h12.663V20.75h1.625v10.156c0 .898-.727 1.625-1.625 1.625H16.618l-2.844 2.844h20.788a.813.813 0 0 0 .813-.813V16.689H37v17.875A2.437 2.437 0 0 1 34.562 37H12.794c-1.085 0-1.63-1.313-.861-2.08l13.356-13.358h-3.726v1.625h-1.625v-2.03c0-.674.546-1.22 1.22-1.22h5.756l2.844-2.843H17.094V27.25h-1.625V17.094c0-.898.727-1.625 1.625-1.625h14.288l2.844-2.844H13.438Z"
  />
</svg>
